<?xml version="1.0" encoding="utf-8"?>
<!-- Generator: Adobe Illustrator 27.0.0, SVG Export Plug-In . SVG Version: 6.00 Build 0)  -->
<svg version="1.1" id="Layer_1" xmlns="http://www.w3.org/2000/svg" xmlns:xlink="http://www.w3.org/1999/xlink" x="0px" y="0px"
	 viewBox="0 0 210.89 99.27" style="enable-background:new 0 0 210.89 99.27;" xml:space="preserve">
<g>
	<g>
		<g id="XMLID_00000138547754172820404990000017621844334005812158_">
			<g id="XMLID_00000173158419393756585660000001191242317160459918_">
				<path id="XMLID_00000014620020862604865560000012073733583146869160_" d="M49.53,46.96h-11.7l-3.58-8.63H14.76l-3.26,8.63H0
					L17.57,3.37l12.59,0L49.53,46.96z M24.03,13.78l-6.39,16.94h13.42L24.03,13.78z"/>
				<path id="XMLID_00000130627783709707202080000015295013158017981116_" d="M92.01,3.37l9.46,0v43.59H90.61V19.73L78.85,33.4
					h-1.66L65.43,19.73v27.23H54.56V3.37l9.46,0l14,16.17L92.01,3.37z"/>
				<path id="XMLID_00000164487160647376248730000011394414212480542655_" d="M129,3.37c15.91,0,24.09,9.9,24.09,21.86
					c0,12.53-7.92,21.73-25.31,21.73h-18.02V3.37L129,3.37z M120.63,38.97h7.09c10.93,0,14.19-7.41,14.19-13.81
					c0-7.48-4.03-13.8-14.32-13.8h-6.96V38.97z"/>
			</g>
			<g id="XMLID_00000152944955968269594070000017640856380282121893_">
				<polygon id="XMLID_00000029757319326305351570000015623505993952846219_" points="197.19,13.7 174.71,13.7 161.01,0 210.89,0 
					210.89,49.88 197.19,36.18 				"/>
				<polygon id="XMLID_00000058555036511958860870000013359028556773486244_" points="174.7,36.19 174.7,16.45 160.59,30.55 
					160.59,50.3 180.33,50.3 194.44,36.19 				"/>
			</g>
		</g>
	</g>
	<g>
		<g>
			<path d="M9.29,93.16h13.94l2.64,6.1h6.65L19.31,68.75h-6.1L0,99.26h6.65L9.29,93.16z M16.26,77.06l4.33,10h-8.66L16.26,77.06z"/>
		</g>
		<g>
			<path d="M167.18,68.76h-18.3c-3.37,0-6.1,2.73-6.1,6.1v18.28c0,3.37,2.73,6.1,6.1,6.1h18.3c3.37,0,6.1-2.73,6.1-6.1V74.86
				C173.28,71.49,170.55,68.76,167.18,68.76z M167.18,92.71c0,0.24-0.19,0.43-0.43,0.43h-17.44c-0.24,0-0.43-0.19-0.43-0.43V75.29
				c0-0.24,0.19-0.43,0.43-0.43h17.44c0.24,0,0.43,0.19,0.43,0.43V92.71z"/>
		</g>
		<g>
			<rect x="103.94" y="68.75" width="30.49" height="6.1"/>
			<g>
				<polygon points="103.94,80.95 103.94,99.26 134.43,99.26 134.43,93.15 110.04,93.15 110.04,87.05 134.43,87.05 134.43,80.95 
									"/>
			</g>
		</g>
		<g>
			<path d="M72.37,68.75h-6.65l13.21,30.51h6.1l13.21-30.51H91.6l-9.62,22.2L72.37,68.75z"/>
		</g>
		<polygon points="65.72,93.15 44.36,93.15 44.36,68.76 38.26,68.76 38.26,99.25 38.26,99.26 65.72,99.25 		"/>
	</g>
</g>
</svg>
