<?xml version="1.0" encoding="utf-8"?>
<!-- Generator: Adobe Illustrator 27.0.0, SVG Export Plug-In . SVG Version: 6.00 Build 0)  -->
<svg version="1.1" id="Layer_1" xmlns="http://www.w3.org/2000/svg" xmlns:xlink="http://www.w3.org/1999/xlink" x="0px" y="0px"
	 viewBox="0 0 210.94 127.61" style="enable-background:new 0 0 210.94 127.61;" xml:space="preserve">
<g>
	<g>
		<path d="M17.43,110.16v17.43h-1.94v-14.54l-6.1,6.8H8.04l-6.1-6.8v14.54H0v-17.43h1.94l6.77,7.55l6.77-7.55H17.43z"/>
		<path d="M23.36,119.85v7.74h-1.94v-17.43h14.12c1.84,0,3.31,1.49,3.31,3.31v3.06c0,1.82-1.47,3.31-3.31,3.31H23.36z M23.36,112.1
			v5.8h12.18c0.75,0,1.37-0.62,1.37-1.37v-3.04c0-0.77-0.62-1.39-1.37-1.39H23.36z"/>
		<path d="M43.29,116.53c0,0.75,0.62,1.37,1.37,1.37h10.81c1.82,0,3.31,1.49,3.31,3.31v3.06c0,1.82-1.49,3.31-3.31,3.31H41.82v-1.94
			h13.65c0.75,0,1.37-0.62,1.37-1.37v-3.06c0-0.75-0.62-1.37-1.37-1.37H44.66c-1.82,0-3.31-1.49-3.31-3.31v-3.06
			c0-1.82,1.49-3.31,3.31-3.31H58.3v1.94H44.66c-0.75,0-1.37,0.62-1.37,1.37V116.53z"/>
		<path d="M71.18,114.99c1.82,0,3.31,1.47,3.31,3.31v5.98c0,1.84-1.49,3.31-3.31,3.31H65.2c-1.84,0-3.31-1.47-3.31-3.31v-5.98
			c0-1.84,1.47-3.31,3.31-3.31H71.18z M72.55,118.33c0-0.77-0.62-1.39-1.39-1.39h-5.93c-0.77,0-1.39,0.62-1.39,1.39v5.93
			c0,0.77,0.62,1.39,1.39,1.39h5.93c0.77,0,1.39-0.62,1.39-1.39V118.33z"/>
		<path d="M80.32,124.28c0,0.75,0.62,1.37,1.37,1.37h14.12v1.94H81.69c-1.82,0-3.31-1.49-3.31-3.31v-10.81
			c0-1.82,1.49-3.31,3.31-3.31h14.12v1.94H81.69c-0.75,0-1.37,0.62-1.37,1.37V124.28z"/>
	</g>
	<g>
		<g>
			<g id="XMLID_00000065764234313964886830000004597396218898146720_">
				<g id="XMLID_00000098195124480240066520000003785038643574455212_">
					<path id="XMLID_00000147197793370192038060000009239756799173193888_" d="M49.53,46.96h-11.7l-3.58-8.63l-19.49,0l-3.26,8.63H0
						L17.57,3.37l12.59,0L49.53,46.96z M24.03,13.78l-6.39,16.94h13.42L24.03,13.78z"/>
					<path id="XMLID_00000101821686501164926820000016470835466879757212_" d="M92.02,3.37l9.46,0v43.59H90.61V19.73L78.85,33.4
						h-1.66L65.43,19.73v27.23H54.56V3.37l9.46,0l14,16.17L92.02,3.37z"/>
					<path id="XMLID_00000142159422208842659370000007743452824594573216_" d="M129.01,3.37c15.91,0,24.09,9.9,24.09,21.86
						c0,12.53-7.92,21.73-25.31,21.73h-18.02V3.37L129.01,3.37z M120.63,38.97h7.09c10.93,0,14.19-7.41,14.19-13.81
						c0-7.48-4.03-13.8-14.32-13.8h-6.96V38.97z"/>
				</g>
				<g id="XMLID_00000156573308855095552150000010489745594035188415_">
					<polygon id="XMLID_00000052804961655487968740000018056492610142497460_" points="197.19,13.7 174.72,13.7 161.01,0 210.89,0 
						210.89,49.88 197.19,36.18 					"/>
					<polygon id="XMLID_00000077293852738086490430000017690367902449489553_" points="174.7,36.19 174.7,16.45 160.59,30.55 
						160.59,50.3 180.34,50.3 194.44,36.19 					"/>
				</g>
			</g>
		</g>
		<g>
			<polygon points="0,74.87 21.2,74.87 0.22,92.88 0,93.1 0,99.23 30.44,99.23 30.44,93.15 9.24,93.15 30.22,75.14 30.44,74.92 
				30.44,68.78 0,68.78 			"/>
		</g>
		<g>
			<g>
				<polygon points="51.53,80.86 42.81,68.77 35.28,68.77 48.46,87.05 48.46,99.23 54.54,99.23 54.54,87.05 67.78,68.77 
					60.25,68.77 				"/>
			</g>
		</g>
		<polygon points="97.79,68.78 97.79,89.96 79.55,68.78 73.42,68.78 73.42,99.23 79.51,99.23 79.51,78.06 97.74,99.23 103.88,99.23 
			103.88,68.78 		"/>
		<path d="M136.4,68.78h-18.28c-3.37,0-6.09,2.73-6.09,6.09v18.26c0,3.37,2.73,6.09,6.09,6.09l10.96,0.01l1.76,3.05h7.03l-1.77-3.06
			h0.29c3.37,0,6.09-2.73,6.09-6.09V74.87C142.49,71.51,139.77,68.78,136.4,68.78z M136.4,92.7c0,0.24-0.19,0.43-0.43,0.43h-3.38
			l-1.76-3.06h-7.03l1.76,3.06l-7.01,0c-0.24,0-0.43-0.19-0.43-0.43V75.3c0-0.24,0.19-0.43,0.43-0.43l17.42,0
			c0.24,0,0.43,0.19,0.43,0.43V92.7z"/>
	</g>
</g>
</svg>
