<?xml version="1.0" encoding="utf-8"?>
<!-- Generator: Adobe Illustrator 27.0.0, SVG Export Plug-In . SVG Version: 6.00 Build 0)  -->
<svg version="1.1" id="Layer_1" xmlns="http://www.w3.org/2000/svg" xmlns:xlink="http://www.w3.org/1999/xlink" x="0px" y="0px"
	 viewBox="0 0 210.89 99.27" style="enable-background:new 0 0 210.89 99.27;" xml:space="preserve">
<g>
	<g>
		<g id="XMLID_00000101081699835485994700000010437613107981960103_">
			<g id="XMLID_00000090263489242102629710000017976319842028045952_">
				<path id="XMLID_00000016052563965903698420000015957688054701299387_" d="M49.53,46.96h-11.7l-3.58-8.63l-19.49,0l-3.26,8.63H0
					L17.57,3.37l12.59,0L49.53,46.96z M24.03,13.78l-6.39,16.94h13.42L24.03,13.78z"/>
				<path id="XMLID_00000181047635276297603010000014481934881399693994_" d="M92.02,3.37l9.46,0v43.59H90.61V19.73L78.85,33.4
					h-1.66L65.43,19.73v27.23H54.56V3.37l9.46,0l14,16.17L92.02,3.37z"/>
				<path id="XMLID_00000137816869260495851430000013585752178980791203_" d="M129.01,3.37c15.91,0,24.09,9.9,24.09,21.86
					c0,12.53-7.92,21.73-25.31,21.73h-18.02V3.37L129.01,3.37z M120.63,38.97h7.09c10.93,0,14.19-7.41,14.19-13.81
					c0-7.48-4.03-13.8-14.32-13.8h-6.96V38.97z"/>
			</g>
			<g id="XMLID_00000180347815099876382470000015672632497778511020_">
				<polygon id="XMLID_00000046326335636606058900000016479006916672957094_" points="197.19,13.7 174.72,13.7 161.01,0 210.89,0 
					210.89,49.88 197.19,36.18 				"/>
				<polygon id="XMLID_00000173855776570386551190000004521693195888182451_" points="174.7,36.19 174.7,16.45 160.59,30.55 
					160.59,50.3 180.34,50.3 194.44,36.19 				"/>
			</g>
		</g>
	</g>
	<g>
		<path d="M95.98,93.15h13.93l2.64,6.09h6.64l-13.2-30.47H99.9L86.7,99.24h6.64L95.98,93.15z M102.95,77.07l4.32,9.98h-8.65
			L102.95,77.07z"/>
	</g>
	<rect x="61.87" y="80.96" transform="matrix(6.123234e-17 -1 1 6.123234e-17 -6.9017 161.1051)" width="30.46" height="6.09"/>
	<g>
		<polygon points="30.58,68.78 20.96,68.78 6.09,80.94 6.09,68.77 0,68.77 0,99.23 6.09,99.23 6.09,87.13 20.89,99.23 30.52,99.23 
			11.93,84.03 		"/>
	</g>
	<g>
		<path d="M41.46,87.05H52.7l7.03,12.18h7.03l-7.03-12.18h0c3.36,0,6.09-2.73,6.09-6.09v-6.09c0-3.36-2.73-6.09-6.09-6.09H35.37
			v6.09H59.3c0.24,0,0.43,0.19,0.43,0.43v5.23c0,0.24-0.19,0.43-0.43,0.43H35.37v18.27h6.09V87.05z"/>
	</g>
</g>
</svg>
