<?xml version="1.0" encoding="utf-8"?>
<!-- Generator: Adobe Illustrator 27.2.0, SVG Export Plug-In . SVG Version: 6.00 Build 0)  -->
<svg version="1.1" id="Layer_1" xmlns="http://www.w3.org/2000/svg" xmlns:xlink="http://www.w3.org/1999/xlink" x="0px" y="0px"
	 viewBox="0 0 210.89 101.49" style="enable-background:new 0 0 210.89 101.49;" xml:space="preserve">
<g>
	<g>
		<g id="XMLID_00000143585578006439761790000016020653535785828490_">
			<g id="XMLID_00000116215944073642820650000002113006568756181668_">
				<path id="XMLID_00000017510518561814287490000012908700500667993253_" d="M49.53,46.96h-11.7l-3.58-8.63H14.76l-3.26,8.63H0
					L17.57,3.37l12.59,0L49.53,46.96z M24.03,13.78l-6.39,16.94h13.42L24.03,13.78z"/>
				<path id="XMLID_00000181086007935998803910000007063914053684402321_" d="M92.02,3.37l9.46,0v43.59H90.61V19.73L78.85,33.4
					h-1.66L65.43,19.73v27.23H54.56V3.37l9.46,0l14,16.17L92.02,3.37z"/>
				<path id="XMLID_00000008133869129729332740000014936511717932640159_" d="M129.01,3.37c15.91,0,24.09,9.9,24.09,21.86
					c0,12.53-7.92,21.73-25.31,21.73h-18.02V3.37L129.01,3.37z M120.63,38.97h7.09c10.93,0,14.19-7.41,14.19-13.81
					c0-7.48-4.03-13.8-14.32-13.8h-6.96V38.97z"/>
			</g>
			<g id="XMLID_00000003817476575132835620000006116668573494877318_">
				<polygon id="XMLID_00000069382304845307660050000006027933600606733747_" points="197.19,13.7 174.72,13.7 161.01,0 210.89,0 
					210.89,49.88 197.19,36.18 				"/>
				<polygon id="XMLID_00000018199561572888358070000009463412947906339471_" points="174.7,36.19 174.7,16.45 160.59,30.55 
					160.59,50.3 180.34,50.3 194.44,36.19 				"/>
			</g>
		</g>
	</g>
	<g>
		<path d="M0.21,68.75h24.54c3.31,0,5.97,2.66,5.97,5.97v5.49c0,3.31-2.66,5.97-5.97,5.97H4.57v13.08H0.21V68.75z M26.37,74.72
			c0-0.87-0.74-1.61-1.61-1.61H4.57v8.72h20.18c0.87,0,1.61-0.74,1.61-1.61V74.72z"/>
		<path d="M64.6,68.75L50.47,86.19v13.08h-4.36V86.19L32.03,68.75h5.62l10.64,13.21l10.68-13.21H64.6z"/>
		<path d="M98.38,68.75v30.52h-4.36l-21.8-24.02v24.02h-4.36V68.75h4.36l21.8,24.02V68.75H98.38z"/>
		<path d="M129.25,68.75c3.31,0,6.02,2.7,6.02,6.02v18.57c0,3.27-2.7,5.97-6.02,5.97h-0.92l1.22,2.18h-5.01l-1.26-2.18h-12.6
			c-3.27,0-5.97-2.7-5.97-5.97V74.77c0-3.31,2.7-6.02,5.97-6.02H129.25z M130.86,74.77c0-0.87-0.74-1.66-1.61-1.66h-18.57
			c-0.87,0-1.61,0.78-1.61,1.66v18.57c0,0.87,0.74,1.61,1.61,1.61h10.11l-1.4-2.4h5.06l1.4,2.4h3.4c0.87,0,1.61-0.74,1.61-1.61
			V74.77z"/>
	</g>
</g>
</svg>
